[IMG]http://img28.imageshack.us/img28/7129/trespasse.jpg[/IMG]
[code]
Trespass 2011 DVDRip XviD AC3-26K

Imdb: 
http://www.imdb.com/title/tt1674784/

Plot:
As they're held for ransom, a husband and wife's predicament grows more dire amid the discovery of 

betrayal and deception.

Sources:
DVDR-LEGEND THNXS
SUBS INCLUDED...
Notes:
ENJOY

Greetz:
Xtreme Encode|FYA|ILLUMANTI|CM8|RX|VISION|HDSCENE|NIGHTMAREZ|xTriLL|DTRG|CRYS|REMIXHD|BIDA|RX|REFILL|

INSPiRAL|SIC|ZOMBIESZ|HOPE|Anonymous|GooN
To all the people who have helped me :P you know who you are

Anything to offer email us @: 26k@hushmail.me

Video
ID                                       : 0
Format                                   : MPEG-4 Visual
Format profile                           : Advanced Simple@L5
Format settings, BVOP                    : 2
Format settings, QPel                    : No
Format settings, GMC                     : No warppoints
Format settings, Matrix                  : Default (H.263)
Muxing mode                              : Packed bitstream
Codec ID                                 : XVID
Codec ID/Hint                            : XviD
Duration                                 : 1h 26mn
Bit rate                                 : 1 501 Kbps
Width                                    : 720 pixels
Height                                   : 300 pixels
Display aspect ratio                     : 2.40:1
Frame rate                               : 25.000 fps
Color space                              : YUV
Chroma subsampling                       : 4:2:0
Bit depth                                : 8 bits
Scan type                                : Progressive
Compression mode                         : Lossy
Bits/(Pixel*Frame)                       : 0.278
Stream size                              : 934 MiB (76%)
Writing library                          : XviD 1.2.1 (UTC 2008-12-04)

Audio
ID                                       : 1
Format                                   : AC-3
Format/Info                              : Audio Coding 3
Mode extension                           : CM (complete main)
Codec ID                                 : 2000
Duration                                 : 1h 26mn
Bit rate mode                            : Constant
Bit rate                                 : 448 Kbps
Channel(s)                               : 6 channels
Channel positions                        : Front: L C R, Side: L R, LFE
Sampling rate                            : 48.0 KHz
Bit depth                                : 16 bits
Compression mode                         : Lossy
Stream size                              : 279 MiB (23%)
Alignment                                : Aligned on interleaves
Interleave, duration                     : 32 ms (0.80 video frame)


[/code]
Screens:
[IMG]http://i.imgur.com/BYte5.png[/IMG]
[IMG]http://i.imgur.com/4aFkz.png[/IMG]
[IMG]http://img109.imageshack.us/img109/9878/vlcsnap2012030223h00m20.png[/IMG]
[IMG]http://img811.imageshack.us/img811/7325/vlcsnap2012030223h00m31.png[/IMG]
[IMG]http://img831.imageshack.us/img831/382/vlcsnap2012030223h00m38.png[/IMG]
[IMG]http://img848.imageshack.us/img848/3887/vlcsnap2012030223h00m44.png[/IMG]

[img]http://img851.imageshack.us/img851/5503/26ks.jpg[/img]
Thank you smallz for banner!